<svg 
 xmlns="http://www.w3.org/2000/svg"
 xmlns:xlink="http://www.w3.org/1999/xlink"
 width="13px" height="13px">
<path fill-rule="evenodd"  fill="rgb(62, 62, 62)"
 d="M12.902,10.727 C12.835,10.878 12.687,10.968 12.531,10.968 C12.475,10.968 12.420,10.957 12.366,10.933 C12.161,10.841 12.069,10.601 12.160,10.396 C12.178,10.355 12.187,10.311 12.187,10.264 C12.187,8.875 11.139,7.718 9.750,7.718 C9.525,7.718 9.344,7.536 9.344,7.312 C9.344,7.087 9.525,6.905 9.750,6.905 C11.587,6.905 13.000,8.427 13.000,10.264 C13.000,10.425 12.967,10.580 12.902,10.727 ZM9.645,5.040 C9.614,5.040 9.583,5.037 9.552,5.030 C9.333,4.979 9.198,4.760 9.249,4.541 C9.312,4.273 9.344,3.992 9.344,3.706 C9.344,2.110 8.341,0.811 7.109,0.811 C6.789,0.811 6.479,0.899 6.188,1.071 C5.995,1.185 5.746,1.121 5.632,0.928 C5.517,0.735 5.581,0.486 5.774,0.371 C6.186,0.128 6.648,-0.001 7.109,-0.001 C8.789,-0.001 10.156,1.662 10.156,3.706 C10.156,4.055 10.117,4.398 10.040,4.727 C9.996,4.914 9.829,5.040 9.645,5.040 ZM8.937,5.229 C8.937,7.274 7.571,8.937 5.891,8.937 C4.210,8.937 2.844,7.274 2.844,5.229 C2.843,4.256 3.150,3.337 3.706,2.642 C4.283,1.920 5.059,1.522 5.891,1.522 C7.571,1.522 8.937,3.185 8.937,5.229 ZM3.655,5.229 C3.656,6.825 4.659,8.124 5.891,8.124 C7.122,8.124 8.125,6.826 8.125,5.229 C8.125,3.634 7.122,2.335 5.891,2.335 C4.658,2.335 3.655,3.634 3.655,5.229 ZM3.737,8.937 C3.737,9.161 3.555,9.343 3.331,9.343 C1.942,9.343 0.812,10.473 0.812,11.862 C0.812,12.041 0.958,12.186 1.137,12.186 L10.643,12.186 C10.823,12.186 10.969,12.041 10.969,11.862 C10.969,10.473 9.838,9.343 8.449,9.343 C8.225,9.343 8.043,9.161 8.043,8.937 C8.043,8.712 8.225,8.530 8.449,8.530 C10.287,8.530 11.781,10.025 11.781,11.862 C11.781,12.489 11.271,12.999 10.643,12.999 L9.364,13.000 L1.137,12.999 C0.510,12.999 -0.000,12.489 -0.000,11.862 C-0.000,10.025 1.494,8.530 3.331,8.530 C3.555,8.530 3.737,8.712 3.737,8.937 Z"/>
</svg>