<svg 
 xmlns="http://www.w3.org/2000/svg"
 xmlns:xlink="http://www.w3.org/1999/xlink"
 width="13px" height="13px">
<path fill-rule="evenodd"  fill="rgb(85, 85, 85)"
 d="M11.781,12.999 L1.219,12.999 C0.547,12.999 -0.000,12.453 -0.000,11.781 L-0.000,2.031 C-0.000,1.359 0.547,0.812 1.219,0.812 C1.443,0.812 1.625,0.994 1.625,1.218 C1.625,1.443 1.443,1.624 1.219,1.624 C0.995,1.624 0.812,1.807 0.812,2.031 L0.812,4.062 L12.187,4.062 L12.187,2.031 C12.187,1.807 12.005,1.624 11.781,1.624 C11.557,1.624 11.375,1.443 11.375,1.218 C11.375,0.994 11.557,0.812 11.781,0.812 C12.453,0.812 13.000,1.359 13.000,2.031 L13.000,11.781 C13.000,12.453 12.453,12.999 11.781,12.999 ZM12.187,4.874 L0.812,4.874 L0.812,11.781 C0.812,12.005 0.995,12.187 1.219,12.187 L11.781,12.187 C12.005,12.187 12.187,12.005 12.187,11.781 L12.187,4.874 ZM8.734,10.968 C7.950,10.968 7.312,10.330 7.312,9.546 C7.312,9.322 7.494,9.140 7.719,9.140 C7.943,9.140 8.125,9.322 8.125,9.546 C8.125,9.882 8.398,10.156 8.734,10.156 C9.070,10.156 9.344,9.882 9.344,9.546 C9.344,9.210 9.070,8.937 8.734,8.937 C8.510,8.937 8.328,8.755 8.328,8.531 C8.328,8.306 8.510,8.124 8.734,8.124 C9.070,8.124 9.344,7.851 9.344,7.515 C9.344,7.179 9.070,6.906 8.734,6.906 C8.398,6.906 8.125,7.179 8.125,7.515 C8.125,7.739 7.943,7.921 7.719,7.921 C7.494,7.921 7.312,7.739 7.312,7.515 C7.312,6.731 7.950,6.093 8.734,6.093 C9.518,6.093 10.156,6.731 10.156,7.515 C10.156,7.913 9.992,8.272 9.728,8.531 C9.992,8.789 10.156,9.149 10.156,9.546 C10.156,10.330 9.518,10.968 8.734,10.968 ZM5.687,10.562 C5.687,10.787 5.506,10.968 5.281,10.968 L3.250,10.968 C3.025,10.968 2.844,10.787 2.844,10.562 C2.844,10.015 3.327,9.509 3.887,8.923 C4.327,8.462 4.875,7.888 4.875,7.515 C4.875,7.179 4.602,6.906 4.266,6.906 C3.930,6.906 3.656,7.179 3.656,7.515 C3.656,7.739 3.474,7.921 3.250,7.921 C3.025,7.921 2.844,7.739 2.844,7.515 C2.844,6.731 3.482,6.093 4.266,6.093 C5.050,6.093 5.687,6.731 5.687,7.515 C5.687,8.214 5.071,8.860 4.475,9.484 C4.278,9.690 4.041,9.939 3.872,10.156 L5.281,10.156 C5.506,10.156 5.687,10.338 5.687,10.562 ZM10.562,2.437 C10.338,2.437 10.156,2.255 10.156,2.031 L10.156,0.406 C10.156,0.181 10.338,-0.001 10.562,-0.001 C10.787,-0.001 10.969,0.181 10.969,0.406 L10.969,2.031 C10.969,2.255 10.787,2.437 10.562,2.437 ZM8.937,2.437 C8.713,2.437 8.531,2.255 8.531,2.031 L8.531,0.406 C8.531,0.181 8.713,-0.001 8.937,-0.001 C9.162,-0.001 9.344,0.181 9.344,0.406 L9.344,2.031 C9.344,2.255 9.162,2.437 8.937,2.437 ZM7.312,2.437 C7.088,2.437 6.906,2.255 6.906,2.031 L6.906,0.406 C6.906,0.181 7.088,-0.001 7.312,-0.001 C7.537,-0.001 7.719,0.181 7.719,0.406 L7.719,2.031 C7.719,2.255 7.537,2.437 7.312,2.437 ZM5.687,2.437 C5.463,2.437 5.281,2.255 5.281,2.031 L5.281,0.406 C5.281,0.181 5.463,-0.001 5.687,-0.001 C5.912,-0.001 6.094,0.181 6.094,0.406 L6.094,2.031 C6.094,2.255 5.912,2.437 5.687,2.437 ZM4.062,2.437 C3.838,2.437 3.656,2.255 3.656,2.031 L3.656,0.406 C3.656,0.181 3.838,-0.001 4.062,-0.001 C4.287,-0.001 4.469,0.181 4.469,0.406 L4.469,2.031 C4.469,2.255 4.287,2.437 4.062,2.437 ZM2.437,2.437 C2.213,2.437 2.031,2.255 2.031,2.031 L2.031,0.406 C2.031,0.181 2.213,-0.001 2.437,-0.001 C2.662,-0.001 2.844,0.181 2.844,0.406 L2.844,2.031 C2.844,2.255 2.662,2.437 2.437,2.437 Z"/>
</svg>