<svg 
 xmlns="http://www.w3.org/2000/svg"
 xmlns:xlink="http://www.w3.org/1999/xlink"
 width="14px" height="14px">
<path fill-rule="evenodd"  fill="rgb(85, 85, 85)"
 d="M7.333,14.000 C3.657,14.000 0.667,11.009 0.667,7.333 C0.667,3.657 3.657,0.666 7.333,0.666 C11.009,0.666 14.000,3.657 14.000,7.333 C14.000,11.009 11.009,14.000 7.333,14.000 ZM7.333,1.499 C4.117,1.499 1.500,4.116 1.500,7.333 C1.500,10.549 4.117,13.166 7.333,13.166 C10.550,13.166 13.167,10.549 13.167,7.333 C13.167,4.116 10.550,1.499 7.333,1.499 ZM9.833,10.350 C9.727,10.350 9.620,10.310 9.539,10.228 L7.800,8.490 C7.656,8.549 7.498,8.583 7.333,8.583 C6.644,8.583 6.083,8.022 6.083,7.333 C6.083,6.790 6.433,6.332 6.917,6.159 L6.917,2.749 C6.917,2.520 7.103,2.333 7.333,2.333 C7.564,2.333 7.750,2.520 7.750,2.749 L7.750,6.159 C8.234,6.332 8.583,6.790 8.583,7.333 C8.583,7.552 8.522,7.755 8.422,7.934 L10.128,9.639 C10.291,9.802 10.291,10.066 10.128,10.228 C10.047,10.310 9.940,10.350 9.833,10.350 ZM7.333,6.916 C7.103,6.916 6.917,7.103 6.917,7.333 C6.917,7.562 7.103,7.749 7.333,7.749 C7.563,7.749 7.750,7.562 7.750,7.333 C7.750,7.103 7.563,6.916 7.333,6.916 Z"/>
</svg>